<svg fill="#393185" width="100px" height="100px" viewBox="0 0 64 64" data-name="Layer 1" id="Layer_1" xmlns="http://www.w3.org/2000/svg" stroke="#393185"><g id="SVGRepo_bgCarrier" stroke-width="0"></g><g id="SVGRepo_tracerCarrier" stroke-linecap="round" stroke-linejoin="round"></g><g id="SVGRepo_iconCarrier"><rect height="4" width="19" x="35" y="58"></rect><path d="M54,20.276a7.733,7.733,0,0,0-7.724-7.724h-.484a1,1,0,0,1-.943-.666A7.317,7.317,0,0,0,31.3,11.272a1,1,0,0,1-1.62.286,7.272,7.272,0,0,0-5.21-2.179,7.351,7.351,0,0,0-7.175,5.839.993.993,0,0,1-1.022.8L16,16a6,6,0,0,0,0,12H46.276A7.733,7.733,0,0,0,54,20.276ZM41,18V16a6.006,6.006,0,0,1,6,6H45A4,4,0,0,0,41,18Zm4,6h2v2H45Z"></path><path d="M58,13a2,2,0,0,0-2,2V30a1,1,0,0,1-.341.752l-7.977,6.98-4.975,4.975-1.414-1.414,6.5-6.5a1.829,1.829,0,0,0-2.586-2.586l-8.036,8.036A3.974,3.974,0,0,0,36,43.071v7.117a3.99,3.99,0,0,0,.2,1.265L37.721,56H52V47.415a6,6,0,0,1,.89-3.144l6.517-10.59a4,4,0,0,0,.593-2.1V15A2,2,0,0,0,58,13Z"></path><path d="M16.207,32.207a1.831,1.831,0,0,0,0,2.586l6.5,6.5-1.414,1.414-4.975-4.975-7.977-6.98A1,1,0,0,1,8,30V15a2,2,0,0,0-4,0V31.585a4,4,0,0,0,.593,2.1l6.517,10.59A6,6,0,0,1,12,47.415V56H26.279L27.8,51.453a3.99,3.99,0,0,0,.2-1.265V43.071a3.974,3.974,0,0,0-1.171-2.828l-8.036-8.036A1.831,1.831,0,0,0,16.207,32.207Z"></path><rect height="4" width="19" x="10" y="58"></rect></g></svg>